<svg xmlns="http://www.w3.org/2000/svg" viewBox="0 0 512 512" width="512" height="512">
  <rect width="512" height="512" rx="100" fill="#0a0814"/>
  <g transform="translate(256,252)">
    <!-- Left hemisphere -->
    <path d="M-20,-100 C-74,-100 -122,-74 -132,-26 C-142,16 -126,54 -106,74 C-90,90 -64,106 -38,112 L-38,122 L-20,122 L-20,-100 Z"
          fill="none" stroke="#3dffaa" stroke-width="9" stroke-linejoin="round"/>
    <!-- Right hemisphere -->
    <path d="M20,-100 C74,-100 122,-74 132,-26 C142,16 126,54 106,74 C90,90 64,106 38,112 L38,122 L20,122 L20,-100 Z"
          fill="none" stroke="#3dffaa" stroke-width="9" stroke-linejoin="round"/>
    <!-- Center line -->
    <line x1="0" y1="-100" x2="0" y2="122" stroke="#3dffaa" stroke-width="5" stroke-dasharray="10,8"/>
    <!-- Neural nodes -->
    <circle cx="-74" cy="-20" r="9" fill="#a78bfa"/>
    <circle cx="-96" cy="26" r="7" fill="#5ee7ff"/>
    <circle cx="-52" cy="58" r="8" fill="#a78bfa"/>
    <circle cx="-78" cy="-58" r="6" fill="#3dffaa" opacity="0.7"/>
    <circle cx="74" cy="-20" r="9" fill="#a78bfa"/>
    <circle cx="96" cy="26" r="7" fill="#5ee7ff"/>
    <circle cx="52" cy="58" r="8" fill="#a78bfa"/>
    <circle cx="78" cy="-58" r="6" fill="#3dffaa" opacity="0.7"/>
    <!-- Neural lines -->
    <line x1="-78" y1="-58" x2="-74" y2="-20" stroke="#3dffaa" stroke-width="3" opacity="0.5"/>
    <line x1="-74" y1="-20" x2="-96" y2="26" stroke="#a78bfa" stroke-width="3" opacity="0.6"/>
    <line x1="-96" y1="26" x2="-52" y2="58" stroke="#5ee7ff" stroke-width="3" opacity="0.6"/>
    <line x1="78" y1="-58" x2="74" y2="-20" stroke="#3dffaa" stroke-width="3" opacity="0.5"/>
    <line x1="74" y1="-20" x2="96" y2="26" stroke="#a78bfa" stroke-width="3" opacity="0.6"/>
    <line x1="96" y1="26" x2="52" y2="58" stroke="#5ee7ff" stroke-width="3" opacity="0.6"/>
    <!-- Bottom bar -->
    <rect x="-38" y="122" width="76" height="14" rx="7" fill="#3dffaa" opacity="0.7"/>
  </g>
</svg>
